<?xml version="1.0" standalone="no"?>
<!DOCTYPE svg PUBLIC "-//W3C//DTD SVG 20010904//EN"
 "http://www.w3.org/TR/2001/REC-SVG-20010904/DTD/svg10.dtd">
<svg version="1.0" xmlns="http://www.w3.org/2000/svg"
 width="512.000000pt" height="512.000000pt" viewBox="0 0 512.000000 512.000000"
 preserveAspectRatio="xMidYMid meet">

<g transform="translate(0.000000,512.000000) scale(0.100000,-0.100000)"
fill="#000000" stroke="none">
<path d="M1546 4324 c-107 -19 -265 -73 -370 -126 l-86 -43 174 -174 174 -174
84 26 c45 15 112 31 148 37 89 14 1706 14 1786 0 32 -6 99 -23 147 -37 l88
-27 170 170 c93 93 169 172 169 177 0 13 -176 93 -275 125 -190 62 -186 62
-1204 61 -758 -1 -940 -3 -1005 -15z"/>
<path d="M873 4002 c-87 -73 -223 -220 -286 -309 -128 -182 -222 -411 -251
-614 -19 -128 -23 -870 -5 -1009 43 -353 240 -704 530 -946 l81 -67 164 164
c90 90 164 167 164 170 0 3 -31 29 -68 57 -192 143 -323 341 -390 591 -24 93
-25 108 -30 456 -6 491 8 587 113 800 66 133 160 254 266 341 42 34 85 67 95
72 17 10 1 30 -146 177 -91 91 -168 165 -172 165 -4 0 -33 -22 -65 -48z"/>
<path d="M4012 3887 l-164 -164 64 -45 c169 -121 316 -326 381 -533 45 -144
49 -200 44 -635 -3 -378 -5 -410 -25 -482 -69 -242 -211 -453 -399 -590 l-62
-44 167 -167 168 -167 64 53 c278 230 477 563 535 893 23 130 22 971 -1 1105
-44 256 -173 514 -368 734 -62 71 -214 205 -231 205 -6 0 -84 -74 -173 -163z"/>
<path d="M1675 3695 c-314 -58 -578 -290 -675 -592 -43 -133 -53 -277 -47
-638 5 -279 7 -307 30 -397 82 -312 319 -550 635 -636 l97 -26 760 -4 c827 -4
940 1 1077 44 287 91 493 303 585 601 27 88 27 89 31 464 3 311 1 393 -12 468
-62 358 -334 638 -689 712 -86 18 -143 19 -907 18 -625 -1 -831 -4 -885 -14z
m2050 -400 l25 -24 0 -714 0 -714 -26 -24 -26 -24 -1112 -3 c-1197 -3 -1177
-3 -1203 48 -10 19 -13 181 -13 723 l0 699 29 29 29 29 1137 0 1136 0 24 -25z"/>
<path d="M1542 3083 l3 -68 185 -2 c111 -2 194 -7 206 -14 42 -22 44 -43 44
-449 l0 -389 -24 -28 -24 -28 -196 -3 -196 -3 0 -65 0 -64 470 0 470 0 0 119
0 120 -56 25 c-114 52 -180 129 -210 245 -41 162 50 335 211 402 l56 23 -3
120 -3 121 -468 3 -468 2 3 -67z"/>
<path d="M2650 3027 l0 -123 61 -28 c77 -35 142 -100 177 -174 23 -49 27 -70
27 -147 0 -78 -4 -98 -28 -147 -35 -71 -120 -151 -188 -175 l-49 -18 0 -122 0
-123 465 0 465 0 0 64 0 65 -189 3 c-185 3 -190 4 -215 27 l-26 24 0 404 0
404 25 24 c24 25 26 25 215 25 l190 0 0 70 0 70 -465 0 -465 0 0 -123z"/>
<path d="M1540 2560 l0 -280 135 0 135 0 0 280 0 280 -135 0 -135 0 0 -280z"/>
<path d="M3320 2560 l0 -280 130 0 130 0 0 280 0 280 -130 0 -130 0 0 -280z"/>
<path d="M2428 2683 c-15 -16 -32 -41 -37 -56 -14 -37 -14 -113 0 -140 14 -27
70 -87 81 -87 4 0 8 70 8 155 0 170 -4 179 -52 128z"/>
<path d="M2650 2554 l0 -156 23 14 c54 36 85 115 73 184 -7 33 -68 114 -87
114 -5 0 -9 -70 -9 -156z"/>
<path d="M1261 1136 l-174 -174 83 -42 c112 -56 218 -94 341 -122 l104 -23
940 0 c1021 0 1000 -1 1185 57 94 30 290 115 290 127 0 3 -78 84 -172 178
l-173 172 -58 -20 c-157 -53 -134 -52 -987 -56 -538 -3 -830 -1 -902 7 -90 9
-221 38 -288 64 -10 4 -71 -50 -189 -168z"/>
</g>
</svg>
